<?xml version="1.0" encoding="utf-8"?>


<!DOCTYPE svg PUBLIC "-//W3C//DTD SVG 1.1//EN" "http://www.w3.org/Graphics/SVG/1.1/DTD/svg11.dtd">
<svg  version="1.1" xmlns="http://www.w3.org/2000/svg" xmlns:xlink="http://www.w3.org/1999/xlink" x="0px" y="0px"  height="60px" >
	<style  type="text/css">
		svg * {
		transition: fill .1s ease-out, opacity .1s ease-out;
		}

		svg {
		max-height: 60px;
		}

		svg * {
		fill:white;
		}

		@media all and (min-width: 250px)  {
			#logo-only{
			display:none;
			}

			#lockup {
			display:inline;
			}
		}




	</style>

	<svg id="logo-only" preserveAspectRatio="xMinYMid meet" viewBox="0 0 148.6 121.6"
		>
	<polyline points="43.2,59.4 35.1,59.4 35.1,16.2 43.2,16.2 43.2,5.4 5.4,5.4 5.4,16.2 13.5,16.2 13.5,59.4 24.3,70.2 43.2,70.2
		43.2,59.4 "/>
	<polyline points="70.2,70.2 89.1,70.2 99.9,59.4 99.9,16.2 108.1,16.2 108.1,5.4 70.2,5.4 70.2,16.2 78.3,16.2 78.3,59.4 70.2,59.4
		70.2,70.2 "/>
	<polyline points="108.7,80.4 132.4,56.7 143.2,56.7 143.2,45.9 102.7,45.9 102.7,56.7 106.7,56.7 90.5,72.9 67.5,72.9 67.5,56.7
		75.6,56.7 75.6,45.9 37.8,45.9 37.8,56.7 45.9,56.7 45.9,105.3 37.8,105.3 37.8,116.2 75.6,116.2 75.6,105.3 67.5,105.3 67.5,89.1
		90.5,89.1 106.7,105.3 102.7,105.3 102.7,116.2 143.2,116.2 143.2,105.3 133.7,105.3 108.7,80.4 "/>
	<path d="M145.9,118.9H100v-16.2h0L89.1,91.8H70.2v10.8h8.1v16.2H35.1v-16.2h8.1V72.9H23L10.8,60.8V18.9H2.7V2.7h43.2v16.2h-8.1v24.3
		h37.8V18.9h-8.1V2.7h43.2v16.2h-8.1v24.3h43.2v16.2h-12.2l-20.9,20.9l22.3,22.3h10.8V118.9 M136.4,99.9l-19.6-19.6l18.2-18.2h13.5
		l0-21.6l-43.2,0V21.6h8.1V0H64.8v21.6h8.1v18.9H40.5V21.6h8.1V0H0v21.6h8.1v40.5h0h0l13.5,13.5h18.9v24.3h-8.1v21.6H81V99.9h-8.1
		v-5.4h14.9l9.5,9.5v17.6h51.3l0-21.6H136.4z"/>
	</svg>

	<svg id="lockup" preserveAspectRatio="xMinYMid meet" display="none"
		 viewBox="0 0 586.7 155.5"
		>
	<polyline points="51.4,69.7 43.3,69.7 43.3,26.4 51.4,26.4 51.4,15.6 13.6,15.6 13.6,26.4 21.7,26.4 21.7,69.7 32.5,80.5 51.4,80.5
		51.4,69.7 "/>
	<polyline points="78.4,80.5 97.3,80.5 108.1,69.7 108.1,26.4 116.2,26.4 116.2,15.6 78.4,15.6 78.4,26.4 86.5,26.4 86.5,69.7
		78.4,69.7 78.4,80.5 "/>
	<polyline points="116.9,90.6 140.5,67 151.3,67 151.3,56.2 110.8,56.2 110.8,67 114.9,67 98.7,83.2 75.7,83.2 75.7,67 83.8,67
		83.8,56.2 46,56.2 46,67 54.1,67 54.1,115.6 46,115.6 46,126.4 83.8,126.4 83.8,115.6 75.7,115.6 75.7,99.4 98.7,99.4 114.9,115.6
		110.8,115.6 110.8,126.4 151.3,126.4 151.3,115.6 141.9,115.6 116.9,90.6 "/>
	<path d="M154,129.1h-45.9v-16.2h0l-10.8-10.8H78.4v10.8h8.1v16.2H43.3v-16.2h8.1V83.2H31.1L19,71V29.1h-8.1V12.9h43.2v16.2H46v24.3
		h37.8V29.1h-8.1V12.9h43.2v16.2h-8.1v24.3H154v16.2h-12.2l-20.9,20.9l22.3,22.3H154V129.1 M144.6,110.2L125,90.6l18.2-18.2h13.5
		l0-21.6l-43.2,0V31.8h8.1V10.2H73v21.6h8.1v18.9H48.7V31.8h8.1V10.2H8.2v21.6h8.1v40.5h0h0l13.5,13.5h18.9v24.3h-8.1v21.6h48.6
		v-21.6h-8.1v-5.4H96l9.5,9.5v17.6h51.3l0-21.6H144.6z"/>
	<path d="M208.4,11V9.5h12.9V11l-5.2,1.6v21c0,7.6-5,13.8-14.3,13.8c-9.4,0-14.7-4.1-14.7-12.7V12l-5.7-1V9.5h17.6V11l-6.3,1v21.5
		c0,8.2,4.2,11.2,10.9,11.2c6.4,0,9.8-4.9,9.8-11.1v-21L208.4,11"/>
	<path d="M246.4,44.2l4.1,1v1.2h-12.7v-1.2l3.9-1V29.3c0-4-1.6-6.3-5.3-6.3c-2.3,0-4.4,1-6.8,2.7v18.5l3.9,1v1.2h-12.7v-1.2l4.1-1
		V24.4l-4.1-1.9v-1l8.2-2.1l0.5,0.5l-0.4,4.3l0.5,0.1c3.5-3.2,6.3-4.9,9.4-4.9c4.6,0,7.3,2.8,7.3,8.1V44.2"/>
	<path d="M260.3,5.6c2,0,3.4,1.5,3.4,3.4c0,1.9-1.5,3.8-3.7,3.8c-1.9,0-3.3-1.5-3.3-3.4C256.7,7.4,258.2,5.6,260.3,5.6 M253.9,22.5
		v-1l8.5-2.1l0.2,0.2v24.5l3.9,1v1.2h-12.7v-1.2l4.1-1V24.4L253.9,22.5z"/>
	<polyline points="282,40.3 282.5,40.3 285.4,32.9 288.6,23.4 284.6,21.7 284.6,20.5 295.4,20.5 295.4,21.7 291.2,23.5 281.6,47.1
		280,47.1 269.9,22.9 266.3,21.7 266.3,20.5 279,20.5 279,21.7 275.3,22.9 282,40.3 "/>
	<path d="M313.3,29.8c-0.2-5.6-2.1-8.6-5.9-8.6c-3.9,0-6.7,3.7-7.1,9L313.3,29.8 M300.3,31.9c-0.2,7.2,2.8,11.7,9.7,11.7
		c2.7,0,4.8-0.8,8-2.7l0.5,1.2c-3.6,3.4-6.8,5.2-10.6,5.2c-7.4,0-12.6-5.4-12.6-13.5c0-8.2,5.5-14.3,12.7-14.3s10.7,6,10.7,12.4
		H300.3z"/>
	<path d="M338.1,26.6c-2.1,0-3.2-1.9-2.8-3.8c-1.9-0.3-4.4,2-5.8,4.5v16.9l4.3,1v1.2h-13.1v-1.2l4.1-1V24.4l-4.1-1.9v-1l8.2-2.1
		l0.5,0.5l-0.5,5l0.6,0.2c2.5-4,4.8-5.6,7.5-5.6c2.5,0,4.2,1.5,4.2,3.6C341.1,25.3,339.7,26.6,338.1,26.6"/>
	<path d="M352,47.1c-3.1,0-5.7-0.5-8.6-1.6v-7.3l1.4-0.1c1.9,5.3,4.3,7.4,8.2,7.4c3.3,0,5.3-1.7,5.3-4.8c0-2.3-1.6-3.6-6.5-5.4
		c-4.9-1.9-8-3.7-8-7.8c0-4.3,3.7-7.9,9.3-7.9c3,0,5.8,0.6,7.5,1.2l0.2,6.4l-1.2,0.3c-2.3-4.6-4.2-6.3-7.5-6.3c-2.6,0-4.6,1.8-4.6,4
		c0,2.3,1.6,3.5,6,5.2c6.3,2.4,8.8,4.3,8.8,8.3C362.2,43.8,357.8,47.1,352,47.1"/>
	<path d="M372,5.6c2,0,3.4,1.5,3.4,3.4c0,1.9-1.5,3.8-3.7,3.8c-1.9,0-3.3-1.5-3.3-3.4C368.4,7.4,369.9,5.6,372,5.6 M365.7,22.5v-1
		l8.5-2.1l0.2,0.2v24.5l3.9,1v1.2h-12.7v-1.2l4.1-1V24.4L365.7,22.5z"/>
	<path d="M389.2,46.9c-3.7,0-5.7-2.2-5.7-6.7V23.1h-4.5v-1.2l4.9-2.3l2.7-6.9h1.5v7.5h8.9v2.9h-8.9v15.5c0,2.1,0.3,3.4,1.5,4.2
		c0.8,0.5,1.7,0.7,3.7,0.7c0.9,0,2.4-0.1,3.8-0.3l0.1,1C394.7,45.8,392,46.9,389.2,46.9"/>
	<path d="M411.8,50.9c-2.3,5.7-4.6,7.6-7.8,7.6c-2.7,0-3.9-1.7-3.9-3.2c0-1.6,1.3-2.8,3-2.8c1.8,0,2.8,1,4,2.7c1.1-1,2.1-2.7,3-4.6
		l1.7-3.8l-10-23.9l-3.5-1.2v-1.2h12.5v1.2l-3.5,1.2l6.8,18h0.3l6.1-17.5l-4.2-1.7v-1.2H427v1.2l-3.9,1.8L411.8,50.9"/>
	<path d="M447.6,21.3c-4,0-7.3,3.7-7.3,12.3c0,8.5,3.6,12,7.7,12c4.3,0,7.3-3.7,7.3-12.3C455.3,24.8,451.9,21.3,447.6,21.3
		 M447.4,47.3c-8,0-12.5-6-12.5-13.9c0-7.4,5-13.9,13.3-13.9c8.1,0,12.5,5.8,12.5,13.7C460.7,40.7,455.8,47.3,447.4,47.3"/>
	<path d="M472.8,23.3v20.9l5,1v1.2H464v-1.2l4.1-1V23.3h-5.2v-1.2l5.2-1.5v-2.8c0-5.7,1.4-9,4.4-11.5c2.1-1.9,4.6-2.8,7.2-2.8
		c3,0,4.6,1.5,4.6,3.2c0,1.7-1.2,2.8-2.8,2.8c-1.8,0-3.1-1-4.8-4c-2.6,1.6-3.9,4.2-3.9,9.9v5.3h7.2v2.5H472.8"/>
	<polyline points="243.4,125.6 252,128.5 252,131.1 225.5,131.1 225.5,128.7 232.4,126.3 212.2,99.7 204,99.7 204,126.7 214.1,128.5
		214.1,131.1 183.4,131.1 183.4,128.5 194.4,126.7 194.4,70.6 183.4,68.7 183.4,66.2 214.1,66.2 214.1,68.7 204,70.6 204,95.7
		212.9,95.7 233.8,71.9 226.1,68.7 226.1,66.2 248.9,66.2 248.9,68.7 239.8,72.4 218.4,94.7 243.4,125.6 "/>
	<path d="M282.9,102c-0.4-9.9-3.8-15.1-10.3-15.1c-6.8,0-11.8,6.5-12.4,15.8L282.9,102 M260.2,105.6c-0.4,12.7,5,20.6,17,20.6
		c4.8,0,8.3-1.4,14-4.8l0.8,2.1c-6.3,6-12,9.2-18.6,9.2c-13,0-22.1-9.6-22.1-23.7c0-14.4,9.7-25.2,22.3-25.2
		c12.6,0,18.7,10.5,18.7,21.8H260.2z"/>
	<path d="M342.7,127.1l7.2,1.8v2.1h-22.4V129l6.9-1.8V101c0-7-2.8-11.1-9.3-11.1c-4.1,0-7.7,1.8-11.9,4.7v32.5l6.8,1.8v2.1h-22.3V129
		l7.2-1.8V92.4l-7.1-3.3v-1.7l14.3-3.7l0.9,0.8l-0.7,7.6l0.9,0.2c6.1-5.7,11.1-8.6,16.6-8.6c8,0,12.8,4.9,12.8,14.2V127.1"/>
	<path d="M368.6,131.9c-6.5,0-10-3.9-10-11.7V90h-7.8v-2.1l8.6-4l4.7-12.1h2.6v13.1h15.7V90h-15.7v27.3c0,3.7,0.5,6,2.6,7.4
		c1.3,0.9,2.9,1.2,6.5,1.2c1.6,0,4.2-0.2,6.7-0.6l0.1,1.8C378.2,130,373.4,131.9,368.6,131.9"/>
	<path d="M437.5,127.2v1.8l-14.4,3.6l-0.9-0.7l0.7-7.5l-0.9-0.2c-6.1,5.7-10.4,8.6-16.5,8.6c-8.6,0-12.9-6.4-12.9-14.7V91.7l-7.1-3.1
		v-1.2l14.4-3.7l0.9,0.8V115c0,7.8,2.9,11.5,9.2,11.5c4.1,0,7.9-1.8,12-4.6V91.7l-7.2-3.1v-1.2l14.5-3.7l0.9,0.8v41.1L437.5,127.2"/>
	<path d="M475.2,99.1c-3.7,0-5.8-3.1-5.8-6.1c0-2.2,0.7-4.2,1.8-5.4c-1.4-0.4-2.6-0.7-4.6-0.7c-7.9,0-16.5,6.5-16.5,21.1
		c0,11.8,7.6,18.7,17.1,18.7c5.2,0,8.4-1.4,13.5-4.1l1,1.3c-5.1,5.8-11.3,8.8-18,8.8c-13.1,0-22.2-9.4-22.2-23
		c0-14.9,10.3-25.9,25-25.9c8.8,0,14,4.1,14,9.2C480.7,96.5,478.3,99.1,475.2,99.1"/>
	<polyline points="529,126.8 534.7,129 534.7,131.1 515.2,131.1 515.2,129 519.5,126.8 506.3,109.1 501.5,109.1 501.5,127.1
		507.6,129 507.6,131.1 486.1,131.1 486.1,129 493.3,127.1 493.3,64.8 485.3,61.4 485.3,59.6 500.6,55.6 501.5,56.3 501.5,105.6
		506.3,105.6 519.5,90.9 514,87.3 514,85.5 532.9,85.5 532.9,87.6 526.1,90.2 511.3,104.3 529,126.8 "/>
	<path d="M546.4,152.5c-4.8,0-6.8-3-6.8-5.7s2.3-4.9,5.2-4.9c3.2,0,4.9,1.8,7,4.7c1.9-1.8,3.8-4.7,5.3-8l2.9-6.7l-17.6-42.1l-6.2-2.1
		v-2.1h21.8v2.1l-6.1,2.1l12,31.6h0.5l10.8-30.8l-7.4-3v-2.1h18.8v2.1l-6.9,3.2L560.1,139"/>
	<path d="M560.1,139c-4.1,10-8,13.4-13.7,13.4"/>
	</svg>

</svg>
